<?xml version="1.0" encoding="utf-8"?>
<!-- Generator: Adobe Illustrator 16.0.3, SVG Export Plug-In . SVG Version: 6.00 Build 0)  -->
<!DOCTYPE svg PUBLIC "-//W3C//DTD SVG 1.1//EN" "http://www.w3.org/Graphics/SVG/1.1/DTD/svg11.dtd">
<svg version="1.1" id="Layer_1" xmlns="http://www.w3.org/2000/svg" xmlns:xlink="http://www.w3.org/1999/xlink" x="0px" y="0px"
	 width="216.465px" height="74.592px" viewBox="0 0 216.465 74.592" enable-background="new 0 0 216.465 74.592"
	 xml:space="preserve">
<g>
	<g>
		<path fill="#00C4B4" d="M84.573,17.934c1.502-1.568,2.875-2.352,4.116-2.352c1.045,0,1.805,0.327,2.278,0.98
			c0.473,0.654,0.71,1.862,0.71,3.626v9.483l7.203-0.609V17.934c1.568-1.568,2.956-2.352,4.165-2.352
			c1.045,0,1.805,0.327,2.278,0.98c0.473,0.654,0.71,1.862,0.71,3.626v8.269l7.203-0.61v-8.589c0-3.038-0.612-5.431-1.838-7.179
			c-1.225-1.747-3.144-2.622-5.757-2.622c-1.634,0-3.046,0.4-4.239,1.201c-1.193,0.801-2.328,1.756-3.405,2.866
			c-0.621-1.306-1.462-2.311-2.523-3.013c-1.062-0.702-2.458-1.054-4.19-1.054c-1.601,0-2.973,0.368-4.116,1.103
			c-1.144,0.735-2.222,1.609-3.234,2.622H83.74l-0.49-3.136h-5.88v20.836l7.203-0.609V17.934z M52.846,31.532
			c0.389,0.493,0.821,0.927,1.283,1.316l18.978-1.606V0h-7.203v8.281l0.294,3.724c-0.85-0.784-1.715-1.404-2.597-1.862
			c-0.882-0.457-2.009-0.686-3.381-0.686c-1.274,0-2.524,0.294-3.749,0.882c-1.225,0.588-2.303,1.429-3.234,2.523
			c-0.931,1.095-1.683,2.425-2.254,3.993c-0.572,1.568-0.857,3.349-0.857,5.341c0,1.993,0.237,3.773,0.71,5.341
			C51.31,29.106,51.98,30.437,52.846,31.532z M58.849,16.979c0.882-1.094,1.894-1.642,3.038-1.642c0.653,0,1.323,0.115,2.009,0.343
			c0.686,0.229,1.355,0.637,2.009,1.225v9.947c-0.588,0.817-1.2,1.389-1.837,1.715c-0.637,0.327-1.348,0.49-2.131,0.49
			c-1.405,0-2.491-0.556-3.259-1.666s-1.151-2.874-1.151-5.292C57.525,19.78,57.966,18.073,58.849,16.979z M123.943,26.941
			c-0.481-0.746-0.823-1.67-1.018-2.784h14.553c0.065-0.294,0.13-0.71,0.196-1.25c0.064-0.539,0.098-1.135,0.098-1.789
			c0-1.666-0.213-3.209-0.637-4.63c-0.425-1.421-1.07-2.654-1.936-3.7c-0.866-1.045-1.944-1.862-3.234-2.45
			c-1.291-0.588-2.801-0.882-4.532-0.882c-1.47,0-2.892,0.294-4.263,0.882c-1.372,0.588-2.59,1.429-3.651,2.523
			c-1.062,1.095-1.919,2.434-2.572,4.018s-0.979,3.356-0.979,5.316c0,2.005,0.306,3.784,0.914,5.341L123.943,26.941z
			 M124.567,16.097c0.864-0.767,1.869-1.151,3.013-1.151c1.471,0,2.516,0.441,3.137,1.323c0.62,0.882,0.931,2.026,0.931,3.43h-8.771
			C123.138,18.065,123.701,16.865,124.567,16.097z M20.433,12.838c-0.817-1.078-1.813-1.911-2.989-2.499
			c-1.176-0.588-2.499-0.882-3.969-0.882c-1.274,0-2.507,0.287-3.7,0.857c-1.193,0.572-2.262,1.283-3.209,2.132H6.37l-0.49-2.401H0
			v33.32h7.203V36.26l-0.245-3.871c0.849,0.817,1.764,1.445,2.744,1.886c0.98,0.441,1.992,0.662,3.038,0.662
			c1.307,0,2.573-0.294,3.798-0.882s2.319-1.445,3.283-2.573c0.963-1.127,1.731-2.498,2.303-4.115
			c0.571-1.617,0.857-3.471,0.857-5.562c0-1.862-0.221-3.553-0.662-5.072C21.878,15.215,21.249,13.916,20.433,12.838z
			 M14.259,27.367c-0.882,1.127-1.944,1.69-3.185,1.69c-0.621,0-1.258-0.114-1.911-0.343c-0.654-0.229-1.307-0.637-1.96-1.225
			v-9.947c1.372-1.47,2.76-2.205,4.165-2.205c2.809,0,4.214,2.189,4.214,6.566C15.582,24.419,15.141,26.24,14.259,27.367z
			 M32.119,34.08c0.522,0.207,1.053,0.364,1.588,0.496l7.63-0.646c1.286-0.563,2.439-1.331,3.448-2.325
			c1.094-1.078,1.968-2.408,2.622-3.993c0.653-1.584,0.98-3.389,0.98-5.415c0-2.025-0.327-3.83-0.98-5.415
			c-0.654-1.584-1.527-2.916-2.622-3.994c-1.095-1.078-2.352-1.902-3.773-2.475c-1.421-0.571-2.899-0.857-4.435-0.857
			c-1.536,0-3.021,0.287-4.459,0.857c-1.438,0.572-2.703,1.396-3.797,2.475c-1.095,1.078-1.968,2.41-2.622,3.994
			c-0.654,1.584-0.98,3.389-0.98,5.415c0,2.026,0.326,3.83,0.98,5.415c0.653,1.585,1.527,2.915,2.622,3.993
			C29.416,32.683,30.682,33.508,32.119,34.08z M33.222,17.15c0.735-1.241,1.854-1.862,3.356-1.862c1.47,0,2.581,0.621,3.332,1.862
			c0.751,1.242,1.127,2.924,1.127,5.047c0,2.124-0.376,3.806-1.127,5.047c-0.751,1.242-1.862,1.862-3.332,1.862
			c-1.502,0-2.621-0.62-3.356-1.862c-0.735-1.241-1.103-2.923-1.103-5.047C32.119,20.074,32.487,18.392,33.222,17.15z
			 M27.856,39.594l0.033,0.474l153.939-13.024l-0.239-3.468L27.856,39.594z M194.878,49.889c-0.507,0-0.931,0.177-1.271,0.53
			s-0.51,0.797-0.51,1.33c0,0.52,0.17,0.956,0.51,1.31s0.764,0.53,1.271,0.53c0.506,0,0.93-0.177,1.27-0.53s0.51-0.79,0.51-1.31
			c0-0.533-0.17-0.977-0.51-1.33S195.384,49.889,194.878,49.889z M204.781,48.389c-0.26-0.227-0.547-0.417-0.86-0.57
			c-0.313-0.152-0.63-0.29-0.949-0.41c-0.254-0.093-0.497-0.183-0.73-0.27s-0.439-0.177-0.62-0.271
			c-0.18-0.093-0.323-0.196-0.43-0.31c-0.107-0.113-0.16-0.25-0.16-0.41c0-0.52,0.373-0.78,1.12-0.78
			c0.347,0,0.693,0.074,1.04,0.221s0.7,0.354,1.06,0.62l1.32-1.761c-0.427-0.319-0.927-0.609-1.5-0.869
			c-0.573-0.261-1.24-0.391-2-0.391c-0.573,0-1.094,0.077-1.56,0.23c-0.467,0.153-0.867,0.363-1.2,0.63
			c-0.334,0.267-0.59,0.593-0.771,0.979c-0.18,0.388-0.27,0.808-0.27,1.261c0,0.413,0.08,0.776,0.24,1.09
			c0.159,0.313,0.366,0.587,0.62,0.819c0.253,0.233,0.532,0.431,0.84,0.591c0.307,0.159,0.612,0.3,0.92,0.42
			c0.253,0.106,0.5,0.203,0.74,0.29c0.239,0.087,0.456,0.183,0.649,0.29c0.193,0.106,0.347,0.223,0.46,0.35s0.17,0.27,0.17,0.43
			c0,0.268-0.1,0.474-0.3,0.62c-0.2,0.147-0.52,0.22-0.96,0.22c-0.427,0-0.847-0.086-1.26-0.26c-0.414-0.173-0.847-0.433-1.3-0.78
			l-1.32,1.841c0.507,0.413,1.103,0.746,1.79,1c0.687,0.253,1.356,0.38,2.01,0.38c0.667,0,1.253-0.084,1.76-0.25
			c0.507-0.167,0.934-0.394,1.28-0.681c0.347-0.286,0.606-0.623,0.78-1.01c0.173-0.387,0.26-0.807,0.26-1.26s-0.08-0.843-0.24-1.17
			S205.041,48.616,204.781,48.389z M212.726,47.509l3.479-4.08h-3.2l-3.14,3.939h-0.08V39.33h-2.86v14.02h2.86v-2.44l1.26-1.42
			l2.24,3.86h3.18L212.726,47.509z"/>
	</g>
</g>
<g>
	<g>
		<path d="M103.647,40.104c-0.852-1.055-1.871-1.867-3.059-2.438s-2.5-0.855-3.938-0.855c-1,0-2.059,0.188-3.176,0.563
			s-2.215,1.047-3.293,2.016V25.35h-2.602c-0.172,0.156-0.441,0.318-0.809,0.485s-0.852,0.323-1.453,0.466
			c-0.602,0.145-1.328,0.264-2.18,0.359c-0.852,0.095-1.832,0.143-2.941,0.143v3.609l3.375-0.141
			c-0.078,0.719-0.129,1.453-0.152,2.203s-0.035,1.414-0.035,1.992v27.117h2.906l1.383-2.133h0.047
			c0.563,0.609,1.16,1.105,1.793,1.488s1.262,0.68,1.887,0.891s1.219,0.352,1.781,0.422s1.063,0.105,1.5,0.105
			c1.813,0,3.438-0.336,4.875-1.008s2.66-1.602,3.668-2.789s1.777-2.598,2.309-4.23s0.797-3.418,0.797-5.355
			c0-1.859-0.234-3.539-0.703-5.039S104.499,41.159,103.647,40.104z M99.042,53.1c-0.172,1.094-0.469,2.066-0.891,2.918
			s-0.98,1.535-1.676,2.051s-1.566,0.773-2.613,0.773c-0.438,0-0.875-0.074-1.313-0.223s-0.832-0.395-1.184-0.738
			s-0.637-0.801-0.855-1.371s-0.328-1.277-0.328-2.121V43.186c0.422-0.594,0.973-1.074,1.652-1.441s1.418-0.566,2.215-0.598
			c0.922,0,1.715,0.234,2.379,0.703s1.207,1.098,1.629,1.887s0.734,1.699,0.938,2.73s0.305,2.109,0.305,3.234
			C99.3,50.874,99.214,52.006,99.042,53.1z M157.296,37.584h-9.094v3.656l2.977-0.188V41.1c-0.297,0.469-0.566,0.949-0.809,1.441
			s-0.504,1.129-0.785,1.91l-3.492,9.891h-0.047l-4.031-9.938c-0.141-0.406-0.254-0.789-0.34-1.148s-0.129-0.695-0.129-1.008
			c0-0.453,0.121-0.824,0.363-1.113s0.66-0.449,1.254-0.48v-3.07h-19.658v3.656l2.74-0.188V41.1
			c-0.219,0.266-0.43,0.594-0.631,0.984c-0.205,0.391-0.396,0.797-0.574,1.219c-0.182,0.422-0.34,0.832-0.482,1.23
			c-0.139,0.398-0.256,0.746-0.35,1.043c-0.346,1.047-0.668,2.059-0.973,3.035c-0.307,0.977-0.586,1.883-0.844,2.719
			s-0.49,1.582-0.691,2.238c-0.205,0.656-0.375,1.188-0.518,1.594h-0.045l-4.688-10.758c-0.143-0.313-0.258-0.629-0.352-0.949
			s-0.141-0.629-0.141-0.926c0-0.469,0.146-0.875,0.445-1.219c0.295-0.344,0.82-0.563,1.57-0.656v-3.07H106.02v3.656l2.203-0.094
			c0.047,0.359,0.105,0.734,0.176,1.125s0.188,0.832,0.353,1.324c0.164,0.492,0.387,1.066,0.668,1.723s0.646,1.43,1.102,2.32
			l7.617,15.211c-0.281,1.016-0.592,1.996-0.926,2.941c-0.338,0.945-0.689,1.781-1.055,2.508c-0.369,0.727-0.732,1.313-1.09,1.758
			c-0.361,0.445-0.703,0.668-1.031,0.668v-0.047c0.047-0.234,0.07-0.453,0.07-0.656c0-0.391-0.068-0.75-0.199-1.078
			c-0.135-0.328-0.314-0.609-0.541-0.844s-0.488-0.418-0.783-0.551c-0.299-0.133-0.609-0.199-0.938-0.199
			c-0.455,0-0.873,0.09-1.254,0.27c-0.385,0.18-0.713,0.422-0.984,0.727c-0.275,0.305-0.49,0.656-0.645,1.055
			c-0.157,0.398-0.235,0.816-0.235,1.254c0,0.594,0.113,1.133,0.339,1.617c0.227,0.484,0.535,0.898,0.928,1.242
			c0.389,0.344,0.85,0.609,1.383,0.797c0.529,0.188,1.107,0.281,1.734,0.281c1.078,0,2.021-0.223,2.834-0.668
			s1.555-1.129,2.229-2.051c0.67-0.922,1.313-2.098,1.922-3.527s1.248-3.121,1.922-5.074l6.023-17.133
			c0.498-1.453,1.072-2.668,1.723-3.645c0.619-0.936,1.406-1.527,2.35-1.797v0.543l1.781-0.094c0.063,0.281,0.113,0.535,0.152,0.762
			s0.094,0.477,0.164,0.75s0.176,0.602,0.316,0.984s0.344,0.863,0.609,1.441l7.594,16.641h4.195l6.141-15.328
			c0.188-0.484,0.418-1.035,0.691-1.652s0.594-1.215,0.961-1.793s0.781-1.082,1.242-1.512s0.973-0.691,1.535-0.785V37.584z
			 M176.89,56.932c0.023-0.398,0.039-0.785,0.047-1.16s0.016-0.727,0.023-1.055s0.012-0.609,0.012-0.844
			c0-0.813,0.004-1.531,0.012-2.156s0.012-1.223,0.012-1.793s0.004-1.164,0.012-1.781s0.012-1.332,0.012-2.145
			c0-1.594-0.199-2.969-0.598-4.125s-0.977-2.109-1.734-2.859s-1.688-1.305-2.789-1.664s-2.355-0.539-3.762-0.539
			s-2.727,0.152-3.961,0.457s-2.309,0.734-3.223,1.289s-1.633,1.223-2.156,2.004s-0.785,1.641-0.785,2.578
			c0,0.453,0.066,0.875,0.199,1.266s0.324,0.73,0.574,1.02s0.563,0.523,0.938,0.703s0.797,0.277,1.266,0.293
			c0.563,0,1.047-0.094,1.453-0.281s0.742-0.426,1.008-0.715s0.461-0.609,0.586-0.961s0.188-0.699,0.188-1.043
			c0-0.234-0.035-0.523-0.105-0.867s-0.23-0.648-0.48-0.914c0.406-0.422,0.891-0.75,1.453-0.984s1.172-0.367,1.828-0.398
			c0.656-0.016,1.203,0.086,1.641,0.305s0.789,0.523,1.055,0.914s0.453,0.855,0.563,1.395s0.164,1.129,0.164,1.77v2.508
			c-1.078,0.047-2.156,0.156-3.234,0.328s-2.113,0.414-3.105,0.727s-1.918,0.703-2.777,1.172s-1.605,1.023-2.238,1.664
			s-1.129,1.367-1.488,2.18s-0.539,1.727-0.539,2.742c0,0.922,0.148,1.77,0.445,2.543s0.723,1.449,1.277,2.027
			s1.238,1.027,2.051,1.348s1.734,0.48,2.766,0.48c1.266,0,2.492-0.223,3.68-0.668s2.328-1.215,3.422-2.309h0.047
			c0.016,0.406,0.035,0.762,0.059,1.066s0.066,0.684,0.129,1.137h9.07v-3.656l-3.094,0.141
			C176.839,57.709,176.866,57.331,176.89,56.932z M170.292,55.907c-0.5,0.549-1.07,0.979-1.711,1.293
			c-0.641,0.314-1.336,0.471-2.086,0.471c-0.344,0-0.676-0.047-0.996-0.141c-0.32-0.095-0.602-0.243-0.844-0.447
			c-0.242-0.203-0.441-0.463-0.598-0.775c-0.156-0.313-0.242-0.698-0.258-1.153c0-0.689,0.168-1.301,0.504-1.834
			c0.336-0.532,0.797-0.991,1.383-1.375s1.277-0.693,2.074-0.929s1.648-0.4,2.555-0.494L170.292,55.907z M196.003,54.999
			c-0.453,0.646-0.898,1.162-1.336,1.548s-0.848,0.678-1.23,0.874c-0.383,0.197-0.727,0.327-1.031,0.39
			c-0.305,0.063-0.559,0.095-0.762,0.095c-0.609,0-1.105-0.137-1.488-0.41c-0.383-0.274-0.68-0.634-0.891-1.08
			s-0.352-0.946-0.422-1.502s-0.105-1.115-0.105-1.679v-0.668c0-0.384,0.004-1.025,0.012-1.925c0.008-0.9,0.016-2.097,0.023-3.592
			c0.008-1.494,0.02-3.375,0.035-5.645l6.117-0.117v-3.703h-6.117l0.023-6.023h-3.539c-0.188,0.609-0.48,1.266-0.879,1.969
			s-0.883,1.352-1.453,1.945s-1.215,1.09-1.934,1.488s-1.492,0.605-2.32,0.621v4.008l3.281-0.047l-0.07,11.578
			c0,1.328,0.109,2.48,0.328,3.457s0.52,1.809,0.902,2.496s0.82,1.246,1.313,1.676s1.016,0.762,1.57,0.996s1.117,0.395,1.688,0.48
			s1.121,0.129,1.652,0.129c0.438,0,0.984-0.031,1.641-0.094s1.383-0.258,2.18-0.586s1.633-0.844,2.508-1.547
			s1.75-1.695,2.625-2.977L196.003,54.999z"/>
	</g>
</g>
</svg>
