<?xml version="1.0" encoding="utf-8"?>
<!-- Generator: Adobe Illustrator 16.0.3, SVG Export Plug-In . SVG Version: 6.00 Build 0)  -->
<!DOCTYPE svg PUBLIC "-//W3C//DTD SVG 1.1//EN" "http://www.w3.org/Graphics/SVG/1.1/DTD/svg11.dtd">
<svg version="1.1" id="Layer_1" xmlns="http://www.w3.org/2000/svg" xmlns:xlink="http://www.w3.org/1999/xlink" x="0px" y="0px"
	 width="216.465px" height="74.592px" viewBox="0 0 216.465 74.592" enable-background="new 0 0 216.465 74.592"
	 xml:space="preserve">
<g>
	<g>
		<path fill="#00C4B4" d="M84.573,17.934c1.502-1.568,2.875-2.352,4.116-2.352c1.045,0,1.805,0.327,2.278,0.979
			c0.473,0.654,0.71,1.862,0.71,3.626v9.483l7.203-0.609V17.934c1.568-1.568,2.956-2.352,4.165-2.352
			c1.045,0,1.805,0.327,2.278,0.979c0.473,0.654,0.71,1.862,0.71,3.626v8.27l7.203-0.61v-8.589c0-3.038-0.612-5.431-1.838-7.179
			c-1.226-1.747-3.145-2.622-5.757-2.622c-1.634,0-3.046,0.399-4.239,1.2c-1.193,0.802-2.328,1.757-3.405,2.866
			c-0.621-1.306-1.462-2.311-2.523-3.013c-1.062-0.702-2.458-1.054-4.19-1.054c-1.601,0-2.973,0.367-4.116,1.103
			c-1.144,0.735-2.222,1.609-3.234,2.622H83.74l-0.49-3.136h-5.88v20.836l7.203-0.609V17.934z M52.846,31.531
			c0.389,0.493,0.821,0.928,1.283,1.316l18.978-1.606V0h-7.203v8.28l0.294,3.725c-0.85-0.784-1.715-1.404-2.597-1.862
			c-0.882-0.457-2.009-0.686-3.381-0.686c-1.274,0-2.524,0.294-3.749,0.882c-1.225,0.588-2.303,1.429-3.234,2.522
			c-0.931,1.096-1.683,2.426-2.254,3.993c-0.572,1.568-0.857,3.35-0.857,5.341c0,1.993,0.237,3.773,0.71,5.342
			C51.31,29.106,51.98,30.437,52.846,31.531z M58.849,16.979c0.882-1.094,1.894-1.642,3.038-1.642c0.653,0,1.323,0.115,2.009,0.343
			c0.686,0.229,1.355,0.637,2.009,1.225v9.947c-0.588,0.817-1.2,1.389-1.837,1.715c-0.637,0.327-1.348,0.49-2.131,0.49
			c-1.405,0-2.491-0.556-3.259-1.666c-0.768-1.11-1.151-2.874-1.151-5.292C57.525,19.78,57.966,18.073,58.849,16.979z
			 M123.943,26.941c-0.481-0.746-0.823-1.67-1.019-2.784h14.554c0.064-0.294,0.129-0.71,0.195-1.25
			c0.064-0.538,0.098-1.135,0.098-1.788c0-1.666-0.213-3.209-0.637-4.631c-0.425-1.421-1.07-2.653-1.936-3.699
			c-0.866-1.045-1.944-1.862-3.234-2.45c-1.291-0.588-2.801-0.882-4.531-0.882c-1.471,0-2.893,0.294-4.264,0.882
			c-1.372,0.588-2.59,1.429-3.65,2.522c-1.063,1.096-1.92,2.435-2.572,4.019c-0.653,1.584-0.979,3.355-0.979,5.315
			c0,2.005,0.305,3.784,0.913,5.342L123.943,26.941z M124.566,16.097c0.865-0.767,1.869-1.151,3.014-1.151
			c1.471,0,2.516,0.441,3.137,1.323c0.62,0.882,0.932,2.026,0.932,3.43h-8.771C123.139,18.065,123.701,16.865,124.566,16.097z
			 M20.433,12.838c-0.817-1.078-1.813-1.911-2.989-2.499c-1.176-0.588-2.499-0.882-3.969-0.882c-1.274,0-2.507,0.287-3.7,0.856
			c-1.193,0.572-2.262,1.283-3.209,2.132H6.37l-0.49-2.4H0v33.319h7.203V36.26l-0.245-3.871c0.849,0.817,1.764,1.445,2.744,1.886
			c0.98,0.441,1.992,0.662,3.038,0.662c1.307,0,2.573-0.294,3.798-0.882s2.319-1.445,3.283-2.573
			c0.963-1.127,1.731-2.498,2.303-4.115c0.571-1.616,0.857-3.471,0.857-5.562c0-1.862-0.221-3.553-0.662-5.072
			C21.878,15.215,21.249,13.916,20.433,12.838z M14.259,27.366c-0.882,1.128-1.944,1.69-3.185,1.69
			c-0.621,0-1.258-0.114-1.911-0.343c-0.654-0.229-1.307-0.637-1.96-1.226v-9.946c1.372-1.471,2.76-2.205,4.165-2.205
			c2.809,0,4.214,2.188,4.214,6.565C15.582,24.419,15.141,26.24,14.259,27.366z M32.119,34.08c0.522,0.207,1.053,0.363,1.588,0.496
			l7.63-0.646c1.286-0.563,2.439-1.331,3.448-2.325c1.094-1.078,1.968-2.408,2.622-3.993c0.653-1.584,0.98-3.389,0.98-5.415
			c0-2.024-0.327-3.83-0.98-5.415c-0.654-1.584-1.527-2.916-2.622-3.993c-1.095-1.078-2.352-1.902-3.773-2.476
			c-1.421-0.571-2.899-0.856-4.435-0.856c-1.536,0-3.021,0.287-4.459,0.856c-1.438,0.572-2.703,1.396-3.797,2.476
			c-1.095,1.077-1.968,2.409-2.622,3.993c-0.654,1.584-0.98,3.39-0.98,5.415c0,2.026,0.326,3.83,0.98,5.415
			c0.653,1.585,1.527,2.915,2.622,3.993C29.416,32.683,30.682,33.508,32.119,34.08z M33.222,17.15
			c0.735-1.24,1.854-1.861,3.356-1.861c1.47,0,2.581,0.621,3.332,1.861c0.751,1.242,1.127,2.924,1.127,5.047
			c0,2.124-0.376,3.807-1.127,5.048s-1.862,1.861-3.332,1.861c-1.502,0-2.621-0.62-3.356-1.861
			c-0.735-1.241-1.103-2.924-1.103-5.048C32.119,20.073,32.487,18.392,33.222,17.15z M27.856,39.594l0.033,0.474l153.939-13.023
			l-0.239-3.468L27.856,39.594z M194.878,49.889c-0.507,0-0.931,0.177-1.271,0.53c-0.34,0.353-0.51,0.797-0.51,1.33
			c0,0.52,0.17,0.956,0.51,1.31c0.34,0.354,0.764,0.53,1.271,0.53c0.506,0,0.931-0.177,1.271-0.53c0.34-0.353,0.51-0.79,0.51-1.31
			c0-0.533-0.17-0.978-0.51-1.33C195.809,50.066,195.384,49.889,194.878,49.889z M204.781,48.389c-0.26-0.227-0.547-0.417-0.86-0.57
			c-0.313-0.151-0.63-0.29-0.948-0.409c-0.254-0.094-0.498-0.184-0.73-0.271c-0.233-0.087-0.439-0.177-0.62-0.271
			s-0.323-0.196-0.431-0.311c-0.106-0.113-0.159-0.25-0.159-0.41c0-0.52,0.372-0.779,1.12-0.779c0.347,0,0.693,0.073,1.039,0.221
			c0.348,0.146,0.701,0.354,1.061,0.62l1.32-1.762c-0.428-0.318-0.928-0.608-1.5-0.868c-0.573-0.262-1.24-0.392-2-0.392
			c-0.573,0-1.094,0.077-1.561,0.23c-0.467,0.152-0.867,0.362-1.199,0.63c-0.334,0.267-0.59,0.593-0.771,0.979
			c-0.18,0.389-0.27,0.809-0.27,1.262c0,0.413,0.08,0.775,0.24,1.09c0.158,0.313,0.365,0.587,0.619,0.818
			c0.254,0.233,0.532,0.432,0.84,0.592c0.307,0.158,0.612,0.3,0.92,0.42c0.254,0.105,0.5,0.203,0.74,0.29
			c0.239,0.087,0.456,0.183,0.648,0.29c0.193,0.105,0.348,0.223,0.461,0.35s0.17,0.27,0.17,0.43c0,0.269-0.1,0.475-0.301,0.62
			c-0.199,0.147-0.52,0.22-0.959,0.22c-0.428,0-0.848-0.086-1.26-0.26c-0.414-0.173-0.848-0.433-1.301-0.779l-1.32,1.841
			c0.508,0.413,1.104,0.746,1.791,1c0.687,0.253,1.355,0.38,2.01,0.38c0.666,0,1.252-0.084,1.76-0.25
			c0.507-0.167,0.934-0.395,1.279-0.682c0.348-0.285,0.606-0.622,0.781-1.01c0.172-0.387,0.26-0.807,0.26-1.26
			s-0.08-0.843-0.24-1.17S205.041,48.615,204.781,48.389z M212.727,47.509l3.479-4.08h-3.2l-3.14,3.939h-0.08V39.33h-2.86v14.02
			h2.86V50.91l1.26-1.421l2.24,3.86h3.18L212.727,47.509z"/>
	</g>
</g>
<g>
	<g>
		<path fill="#FFFFFF" d="M103.647,40.104c-0.852-1.055-1.871-1.867-3.059-2.438c-1.188-0.571-2.5-0.855-3.938-0.855
			c-1,0-2.059,0.188-3.176,0.563c-1.117,0.375-2.215,1.047-3.293,2.016V25.35h-2.602c-0.172,0.156-0.441,0.318-0.809,0.485
			s-0.852,0.322-1.453,0.466c-0.602,0.145-1.328,0.264-2.18,0.359c-0.852,0.095-1.832,0.143-2.941,0.143v3.609l3.375-0.142
			c-0.078,0.719-0.129,1.453-0.152,2.203s-0.035,1.414-0.035,1.992v27.117h2.906l1.383-2.134h0.047
			c0.563,0.609,1.16,1.105,1.793,1.488c0.633,0.383,1.262,0.681,1.887,0.892s1.219,0.352,1.781,0.422
			c0.562,0.069,1.063,0.104,1.5,0.104c1.813,0,3.438-0.336,4.875-1.008s2.66-1.602,3.668-2.789c1.008-1.187,1.777-2.598,2.309-4.229
			c0.532-1.633,0.797-3.418,0.797-5.355c0-1.859-0.234-3.539-0.703-5.039C105.158,42.435,104.499,41.159,103.647,40.104z
			 M99.042,53.1c-0.172,1.094-0.469,2.066-0.891,2.918c-0.422,0.853-0.98,1.535-1.676,2.051c-0.696,0.517-1.566,0.773-2.613,0.773
			c-0.438,0-0.875-0.074-1.313-0.223c-0.438-0.149-0.832-0.396-1.184-0.738c-0.352-0.343-0.637-0.801-0.854-1.371
			c-0.218-0.57-0.328-1.277-0.328-2.121V43.186c0.422-0.594,0.973-1.074,1.652-1.44c0.679-0.367,1.418-0.566,2.215-0.599
			c0.922,0,1.715,0.234,2.379,0.703c0.664,0.469,1.207,1.098,1.629,1.887c0.422,0.789,0.734,1.699,0.938,2.73
			c0.204,1.031,0.305,2.109,0.305,3.234C99.3,50.874,99.214,52.006,99.042,53.1z M157.296,37.584h-9.094v3.655l2.978-0.188V41.1
			c-0.298,0.469-0.566,0.949-0.81,1.441c-0.243,0.491-0.504,1.129-0.785,1.91l-3.491,9.891h-0.048l-4.03-9.938
			c-0.142-0.405-0.254-0.789-0.341-1.147c-0.086-0.359-0.129-0.695-0.129-1.008c0-0.453,0.121-0.824,0.363-1.113
			c0.241-0.289,0.659-0.449,1.254-0.48v-3.069h-19.658v3.655l2.74-0.188V41.1c-0.22,0.266-0.431,0.594-0.632,0.984
			c-0.204,0.391-0.395,0.797-0.573,1.219c-0.183,0.422-0.34,0.832-0.481,1.229c-0.14,0.398-0.256,0.746-0.351,1.044
			c-0.347,1.047-0.668,2.059-0.974,3.034c-0.307,0.978-0.586,1.884-0.844,2.72s-0.49,1.582-0.69,2.237
			c-0.205,0.656-0.375,1.188-0.519,1.595h-0.045l-4.688-10.759c-0.143-0.313-0.258-0.629-0.352-0.948
			c-0.095-0.32-0.142-0.629-0.142-0.927c0-0.469,0.146-0.875,0.444-1.219c0.295-0.344,0.82-0.563,1.57-0.656v-3.069H106.02v3.655
			l2.203-0.094c0.047,0.359,0.105,0.734,0.176,1.125c0.071,0.392,0.188,0.832,0.353,1.324c0.164,0.492,0.387,1.066,0.668,1.723
			c0.281,0.657,0.646,1.431,1.102,2.32l7.617,15.211c-0.281,1.016-0.592,1.996-0.926,2.941c-0.338,0.944-0.689,1.78-1.055,2.508
			c-0.369,0.727-0.732,1.313-1.09,1.758c-0.361,0.445-0.703,0.668-1.031,0.668v-0.047c0.047-0.234,0.07-0.453,0.07-0.656
			c0-0.391-0.068-0.75-0.199-1.078c-0.135-0.328-0.314-0.608-0.541-0.844s-0.488-0.418-0.783-0.551
			c-0.299-0.133-0.609-0.199-0.938-0.199c-0.455,0-0.873,0.09-1.254,0.271c-0.386,0.18-0.713,0.422-0.984,0.727
			c-0.275,0.305-0.49,0.656-0.645,1.055c-0.158,0.398-0.236,0.816-0.236,1.254c0,0.595,0.113,1.134,0.339,1.617
			c0.227,0.484,0.535,0.898,0.928,1.242c0.389,0.344,0.85,0.609,1.383,0.797c0.529,0.188,1.107,0.281,1.734,0.281
			c1.078,0,2.021-0.223,2.834-0.668s1.555-1.129,2.229-2.051c0.67-0.923,1.313-2.099,1.922-3.527
			c0.609-1.429,1.248-3.121,1.922-5.074l6.023-17.133c0.498-1.453,1.072-2.668,1.723-3.645c0.619-0.937,1.406-1.527,2.351-1.798
			v0.543l1.78-0.094c0.064,0.281,0.113,0.535,0.152,0.762c0.039,0.228,0.094,0.478,0.164,0.75c0.07,0.273,0.176,0.603,0.316,0.984
			s0.344,0.863,0.609,1.441l7.594,16.641h4.195l6.141-15.328c0.188-0.483,0.418-1.035,0.691-1.651
			c0.272-0.617,0.594-1.216,0.961-1.794c0.367-0.577,0.78-1.081,1.242-1.512c0.461-0.43,0.973-0.69,1.534-0.785V37.584z
			 M176.891,56.932c0.022-0.397,0.039-0.785,0.047-1.16s0.016-0.727,0.022-1.055s0.013-0.609,0.013-0.844
			c0-0.813,0.004-1.531,0.012-2.156s0.012-1.223,0.012-1.793s0.004-1.164,0.012-1.781s0.012-1.332,0.012-2.145
			c0-1.595-0.199-2.97-0.598-4.125c-0.398-1.156-0.977-2.109-1.734-2.859c-0.756-0.75-1.688-1.305-2.789-1.664
			c-1.101-0.359-2.354-0.539-3.762-0.539c-1.406,0-2.727,0.152-3.961,0.457s-2.309,0.734-3.223,1.289s-1.633,1.223-2.156,2.004
			s-0.785,1.642-0.785,2.578c0,0.453,0.066,0.875,0.199,1.266c0.133,0.392,0.324,0.73,0.574,1.021s0.563,0.522,0.938,0.703
			c0.375,0.18,0.797,0.276,1.266,0.293c0.563,0,1.048-0.094,1.453-0.281c0.406-0.187,0.742-0.426,1.008-0.715
			c0.267-0.289,0.462-0.609,0.587-0.961c0.125-0.353,0.188-0.699,0.188-1.043c0-0.234-0.035-0.523-0.105-0.867
			s-0.23-0.648-0.48-0.914c0.406-0.422,0.891-0.75,1.453-0.984c0.563-0.233,1.172-0.366,1.828-0.397
			c0.656-0.017,1.203,0.086,1.641,0.305c0.438,0.219,0.789,0.523,1.055,0.914c0.267,0.392,0.453,0.855,0.564,1.396
			c0.109,0.54,0.163,1.129,0.163,1.77v2.508c-1.077,0.047-2.155,0.156-3.233,0.328s-2.113,0.414-3.105,0.728
			c-0.992,0.313-1.918,0.702-2.777,1.172c-0.858,0.469-1.604,1.022-2.238,1.664c-0.633,0.641-1.129,1.366-1.487,2.18
			s-0.539,1.727-0.539,2.742c0,0.922,0.147,1.77,0.444,2.543c0.298,0.772,0.724,1.449,1.277,2.026
			c0.555,0.578,1.238,1.027,2.051,1.349c0.813,0.321,1.734,0.479,2.767,0.479c1.267,0,2.492-0.223,3.681-0.668
			c1.188-0.444,2.327-1.215,3.422-2.309h0.047c0.016,0.406,0.035,0.762,0.059,1.065c0.023,0.305,0.066,0.685,0.129,1.138h9.07
			v-3.656l-3.094,0.141C176.839,57.709,176.866,57.331,176.891,56.932z M170.292,55.906c-0.5,0.55-1.069,0.979-1.711,1.293
			c-0.642,0.314-1.336,0.472-2.086,0.472c-0.345,0-0.677-0.047-0.996-0.142s-0.603-0.242-0.845-0.446
			c-0.241-0.203-0.44-0.463-0.598-0.775c-0.156-0.313-0.242-0.698-0.258-1.153c0-0.688,0.168-1.301,0.504-1.834
			c0.336-0.531,0.797-0.99,1.383-1.375c0.586-0.384,1.277-0.692,2.074-0.929s1.648-0.4,2.555-0.494L170.292,55.906z M196.003,54.999
			c-0.453,0.646-0.897,1.162-1.336,1.548s-0.849,0.678-1.229,0.874c-0.383,0.197-0.728,0.327-1.031,0.39
			c-0.305,0.063-0.559,0.095-0.762,0.095c-0.609,0-1.105-0.137-1.488-0.409c-0.383-0.274-0.68-0.635-0.891-1.08
			c-0.211-0.446-0.353-0.946-0.422-1.502c-0.07-0.557-0.105-1.115-0.105-1.68v-0.668c0-0.384,0.004-1.024,0.012-1.925
			s0.016-2.097,0.023-3.592c0.008-1.494,0.02-3.375,0.035-5.646l6.116-0.116v-3.703h-6.116l0.022-6.023h-3.539
			c-0.188,0.609-0.479,1.267-0.879,1.969c-0.399,0.703-0.884,1.353-1.453,1.945s-1.215,1.09-1.935,1.488
			c-0.719,0.397-1.491,0.604-2.319,0.621v4.008l3.28-0.047l-0.069,11.578c0,1.328,0.108,2.479,0.328,3.457
			c0.219,0.977,0.521,1.809,0.901,2.496c0.383,0.687,0.82,1.245,1.313,1.676c0.493,0.43,1.017,0.762,1.569,0.996
			c0.555,0.233,1.117,0.395,1.688,0.479s1.121,0.129,1.652,0.129c0.438,0,0.983-0.03,1.642-0.094
			c0.656-0.063,1.383-0.258,2.18-0.586s1.633-0.844,2.508-1.547s1.75-1.695,2.625-2.978L196.003,54.999z"/>
	</g>
</g>
</svg>
